# xmcd
#
# Track frame offsets:
#	150
#	15944
#	36016
#	52089
#	73053
#	90505
#	107816
#	127749
#	148076
#	168678
#
# Disc length: 2477 seconds
# Revision: 0
# Processed by: cddbd v1.5.2PL0 Copyright (c) Steve Scherf et al.
# Submitted via: dBpowerAMP V12.0
#
DISCID=8309ab0a
DTITLE=Daunielle - Daunielle
DYEAR=2014
DGENRE=Blues
TTITLE0=Runaway Train
TTITLE1=Early Grave
TTITLE2=Damn Your Eyes
TTITLE3=I Got a Voice
TTITLE4=Biloxi
TTITLE5=(Your Love Has Lifted Me) Higher and Higher
TTITLE6=Fallen Bird
TTITLE7=Nobody Cared
TTITLE8=Romeo and Juliet
TTITLE9=Goodbye Kiss
EXTD=
EXTT0=
EXTT1=
EXTT2=
EXTT3=
EXTT4=
EXTT5=
EXTT6=
EXTT7=
EXTT8=
EXTT9=
PLAYORDER=
